<mxfile host="app.diagrams.net" modified="2023-11-30T22:58:39.754Z" agent="Mozilla/5.0 (Macintosh; Intel Mac OS X 10_15_7) AppleWebKit/537.36 (KHTML, like Gecko) Chrome/119.0.0.0 Safari/537.36" version="22.1.5" etag="4U9iscGTsPbV12PlZyHw" type="github">
  <diagram name="페이지-1" id="clFAj3WgCJrKL7sSSI70">
    <mxGraphModel>
      <root>
        <mxCell id="0" />
        <mxCell id="1" parent="0" />
      </root>
    </mxGraphModel>
  </diagram>
</mxfile>
